# AST/ASF file generated using VICON BodyLanguage
# -----------------------------------------------
:version 1.10
:name VICON
:units
  mass 1.0
  length 0.45
  angle deg
:documentation
   .ast/.asf automatically generated from VICON data using
   VICON BodyBuilder and BodyLanguage model FoxedUp or BRILLIANT.MOD
:root
   order TX TY TZ RX RY RZ
   axis XYZ
   position 0 0 0  
   orientation 0 0 0 
:bonedata
  begin
     id 1 
     name lhipjoint
     direction 0.623415 -0.642378 0.445763 
     length 2.49859 
     axis 0 0 0  XYZ
  end
  begin
     id 2 
     name lfemur
     direction 0.34202 -0.939693 0  
     length 6.69689  
     axis 0 0 20  XYZ
    dof rx ry rz
    limits (-160.0 20.0)
           (-70.0 70.0)
           (-60.0 70.0)
  end
  begin
     id 3 
     name ltibia
     direction 0.34202 -0.939693 0   
     length 7.37574   
     axis 0 0 20   XYZ
    dof rx
    limits (-10.0 170.0)
  end
  begin
     id 4 
     name lfoot
     direction 0.084323 -0.231675 0.969132   
     length 2.09111   
     axis -90 7.62852e-016 20   XYZ
    dof rx rz
    limits (-45.0 90.0)
           (-70.0 20.0)
  end
  begin
     id 5 
     name ltoes
     direction 1.5357e-011 -4.21957e-011 1   
     length 1.04989   
     axis -90 7.62852e-016 20   XYZ
    dof rx
    limits (-90.0 20.0)
  end
  begin
     id 6 
     name rhipjoint
     direction -0.605402 -0.653903 0.45376   
     length 2.45455  
     axis 0 0 0  XYZ 
  end
  begin
     id 7 
     name rfemur
     direction -0.34202 -0.939693 0   
     length 6.64523   
     axis 0 0 -20   XYZ
    dof rx ry rz
    limits (-160.0 20.0)
           (-70.0 70.0)
           (-70.0 60.0)
  end
  begin
     id 8 
     name rtibia
     direction -0.34202 -0.939693 0   
     length 7.3339   
     axis 0 0 -20   XYZ
    dof rx
    limits (-10.0 170.0)
 end
 begin
     id 9 
     name rfoot
     direction -0.120854 -0.332043 0.93549   
     length 2.23135  
     axis -90 -7.62852e-016 -20   XYZ
    dof rx rz
    limits (-45.0 90.0)
           (-20.0 70.0)
  end
  begin
     id 10 
     name rtoes
     direction -1.53563e-011 -4.21914e-011 1   
     length 1.10614   
     axis -90 -7.62852e-016 -20   XYZ
    dof rx
    limits (-90.0 20.0)
  end
  begin
     id 11 
     name lowerback
     direction 0.0319682 0.998615 -0.0417941   
     length 2.02718   
     axis 0 0 0   XYZ
    dof rx ry rz
    limits (-20.0 45.0)
           (-30.0 30.0)
           (-30.0 30.0)
  end
  begin
     id 12 
     name upperback
     direction 7.63181e-005 0.995808 0.0914691   
     length 1.97539   
     axis 0 0 0   XYZ
    dof rx ry rz
    limits (-20.0 45.0)
           (-30.0 30.0)
           (-30.0 30.0)
  end
  begin
     id 13 
     name thorax
     direction -0.016423 0.993627 0.111514   
     length 2.00349   
     axis 0 0 0   XYZ
    dof rx ry rz
    limits (-20.0 45.0)
           (-30.0 30.0)
           (-30.0 30.0)
  end
  begin
     id 14 
     name lowerneck
     direction -0.174763 0.981668 -0.0760716   
     length 1.71436   
     axis 0 0 0   XYZ
    dof rx ry rz
    limits (-20.0 45.0)
           (-30.0 30.0)
           (-30.0 30.0)
  end
  begin
     id 15 
     name upperneck
     direction 0.345458 0.934587 -0.0848868   
     length 1.72805   
     axis 0 0 0   XYZ
    dof rx ry rz
    limits (-20.0 45.0)
           (-30.0 30.0)
           (-30.0 30.0)
  end
  begin
     id 16
     name head
     direction 0.13001 0.989848 -0.0574291  
     length 1.767  
     axis 0 0 0   XYZ
    dof rx ry rz
    limits (-20.0 45.0)
           (-30.0 30.0)
           (-30.0 30.0)
  end
  begin
     id 17 
     name lclavicle
     direction 0.952951 0.290122 0.0878234  
     length 3.54654  
     axis 0 0 0   XYZ
    dof ry rz
    limits (-20.0 10.0)
           (0.0 20.0)
  end
  begin
     id 18 
     name lhumerus
     direction 1 -4.48957e-011 -4.56525e-028   
     length 5.19807   
     axis 180 -30 -90   XYZ
    dof rx ry rz
    limits (-60.0 90.0)
           (-90.0 90.0)
           (-90.0 90.0)
  end
  begin
     id 19
     name lradius
     direction 1 -4.48979e-011 -2.0317e-027   
     length 3.0937   
     axis 180 -30 -90   XYZ
    dof rx
    limits (-10.0 170.0)
  end
  begin
     id 20
     name lwrist
     direction 1 -4.48953e-011 -3.05809e-027   
     length 1.54685   
     axis 8.48514e-016 90 90   XYZ
    dof ry
    limits (-180.0 0.0)
 end
  begin
     id 21 
     name lhand
     direction 1 -4.48952e-011 -6.11639e-027   
     length 0.672632   
     axis 3.9013e-015 90 90   XYZ
    dof rx rz
    limits (-90.0 90.0)
           (-45.0 45.0)
  end
  begin
     id 22 
     name lfingers
     direction 1 -4.48925e-011 -1.22426e-026   
     length 0.542293   
     axis 7.80276e-015 90 90   XYZ
    dof rx
    limits (0.0 90.0)
  end
  begin
     id 23
     name lthumb
     direction 0.707107 -6.3486e-011 0.707107   
     length 0.778628   
     axis -90 45 5.37419e-014   XYZ
    dof rx rz
    limits (-45.0 45.0)
           (-45.0 45.0)
  end
  begin
     id 24 
     name rclavicle
     direction -0.960732 0.273675 -0.0457849   
     length 3.52079  
     axis 0 0 0   XYZ 
    dof ry rz
    limits (-10.0 20.0)
           (-20.0 0.0)
  end
  begin
     id 25 
     name rhumerus
     direction -1 -4.48976e-011 -1.63613e-027  
     length 5.45222   
     axis 180 30 90   XYZ
    dof rx ry rz
    limits (-90.0 60.0)
           (-90.0 90.0)
           (-90.0 90.0)
  end
  begin
     id 26 
     name rradius
     direction -1 -4.48957e-011 -7.00033e-028   
     length 3.01284   
     axis 180 30 90   XYZ
    dof rx
    limits (-10.0 170.0)
  end
  begin
     id 27 
     name rwrist
     direction -1 -4.48983e-011 -3.05543e-027   
     length 1.50642   
     axis 8.48514e-016 -90 -90   XYZ
    dof ry
    limits (-180.0 0.0)
  end
  begin
     id 28
     name rhand
     direction -1 -4.48984e-011 -6.11072e-027   
     length 0.622296   
     axis 3.9013e-015 -90 -90   XYZ
    dof rx rz
    limits (-90.0 90.0)
           (-45.0 45.0)
  end
  begin
     id 29
     name rfingers
     direction -1 -4.48865e-011 -1.22637e-026   
     length 0.501711   
     axis 7.80276e-015 -90 -90   XYZ
    dof rx
    limits (0.0 90.0)
  end
  begin
     id 30
     name rthumb
     direction -0.707107 -6.34932e-011 0.707107   
     length 0.72036   
     axis -90 -45 -5.37419e-014   XYZ
    dof rx rz
    limits (-45.0 45.0)
           (-45.0 45.0)
  end
:hierarchy
  begin
    root lhipjoint rhipjoint lowerback
    lhipjoint lfemur
    lfemur ltibia
    ltibia lfoot
    lfoot ltoes
    rhipjoint rfemur
    rfemur rtibia
    rtibia rfoot
    rfoot rtoes
    lowerback upperback
    upperback thorax
    thorax lowerneck lclavicle rclavicle
    lowerneck upperneck
    upperneck head
    lclavicle lhumerus
    lhumerus lradius
    lradius lwrist
    lwrist lhand lthumb
    lhand lfingers
    rclavicle rhumerus
    rhumerus rradius
    rradius rwrist
    rwrist rhand rthumb
    rhand rfingers
  end

#!OML:ASF H:\Not Pregnant\Project 1\Capture day 1\Session 1\non-pregnant.ASF
:FULLY-SPECIFIED
:DEGREES
47
root -5.76377 15.937 36.0003 149.021 -86.0245 -138.669
lowerback -6.598 1.233 0.828599
upperback -6.00896 1.41136 0.406657
thorax -2.49306 0.600533 0.0189691
lowerneck 16.7442 -6.81466 -30.8961
upperneck -5.4435 -16.3392 43.5076
head 2.77196 -10.8916 23.8036
rclavicle -1.06847e-015 -2.18663e-015
rhumerus -36.7036 34.9735 -101.365
rradius 48.5394
rwrist 9.85145
rhand 0.232983 -0.815777
rfingers 7.12502
rthumb 25.8135 -29.0843
lclavicle -1.06847e-015 -2.18663e-015
lhumerus -44.1535 -31.5924 103.467
lradius 46.6703
lwrist 35.8264
lhand -9.70821 -11.6212
lfingers 7.12502
lthumb 16.2646 17.7167
rfemur -17.9396 0.913968 16.4082
rtibia 29.8557
rfoot -17.476 -2.3661
rtoes -27.4435
lfemur -20.1889 1.27834 -21.9099
ltibia 27.9463
lfoot -18.5021 -3.42878
ltoes -13.8272
48
root -5.7412 15.9247 36.0227 151.141 -85.9977 -140.796
lowerback -6.38576 1.22184 0.694165
upperback -5.96992 1.40905 0.416387
thorax -2.57356 0.605937 0.100246
lowerneck 16.661 -6.7867 -30.8542
upperneck -5.32249 -16.3176 43.5745
head 2.81647 -10.8844 23.8532
rclavicle -1.64494e-014 -7.15625e-015
rhumerus -36.6325 36.2283 -101.362
rradius 49.5116
rwrist 9.48962
rhand 0.380209 -0.763203
rfingers 7.12502
rthumb 25.9545 -29.0111
lclavicle -1.64494e-014 -7.15625e-015
lhumerus -43.9405 -32.2323 103.604
lradius 47.4383
lwrist 36.1892
lhand -9.51896 -11.2033
lfingers 7.12502
lthumb 16.4468 18.1195
rfemur -18.6138 0.71151 16.1934
rtibia 30.841
rfoot -17.5946 -2.03861
rtoes -27.3922
lfemur -20.4417 1.10827 -22.1063
ltibia 28.27
lfoot -18.4715 -3.14126
ltoes -13.5306
49
root -5.71861 15.9116 36.0412 153.738 -85.8936 -143.41
lowerback -6.17316 1.2312 0.498245
upperback -5.92006 1.43642 0.444349
thorax -2.64515 0.629013 0.23588
lowerneck 16.5607 -6.76375 -30.8012
upperneck -5.19251 -16.2975 43.6351
head 2.86526 -10.8755 23.8912
rclavicle -2.53326e-014 -3.18055e-015
rhumerus -36.5175 37.4255 -101.296
rradius 50.4702
rwrist 9.13095
rhand 0.515905 -0.691516
rfingers 7.12502
rthumb 26.0844 -28.9203
lclavicle -2.53326e-014 -3.18055e-015
lhumerus -43.6981 -32.8401 103.703
lradius 48.2039
lwrist 36.6528
lhand -9.37995 -10.7635
lfingers 7.12502
lthumb 16.5807 18.5482
rfemur -19.291 0.563962 15.9973
rtibia 31.8275
rfoot -17.7208 -1.68426
rtoes -27.2799
lfemur -20.6971 1.07434 -22.289
ltibia 28.6274
lfoot -18.4865 -2.90586
ltoes -13.2706
50
root -5.69583 15.8976 36.058 156.286 -85.7438 -145.97
lowerback -5.95537 1.24768 0.297208
upperback -5.87286 1.47255 0.474752
thorax -2.72307 0.656685 0.376888
lowerneck 16.4476 -6.73766 -30.7433
upperneck -5.04102 -16.2754 43.6951
head 2.9207 -10.8646 23.9279
rclavicle -1.66731e-014 -1.45113e-014
rhumerus -36.3743 38.5499 -101.198
rradius 51.4142
rwrist 8.79187
rhand 0.631713 -0.636165
rfingers 7.12502
rthumb 26.1953 -28.8486
lclavicle -1.66731e-014 -1.45113e-014
lhumerus -43.437 -33.3965 103.743
lradius 48.9384
lwrist 37.1677
lhand -9.24903 -10.406
lfingers 7.12502
lthumb 16.7067 18.8951
rfemur -19.9708 0.418784 15.8266
rtibia 32.8044
rfoot -17.8487 -1.31081
rtoes -27.1153
lfemur -20.9726 1.13189 -22.4563
ltibia 29.017
lfoot -18.5376 -2.7198
ltoes -13.0579
51
root -5.67275 15.8828 36.0741 158.599 -85.5672 -148.286
lowerback -5.73118 1.26819 0.115713
upperback -5.83459 1.51207 0.497227
thorax -2.81364 0.68509 0.498465
lowerneck 16.33 -6.70976 -30.6766
upperneck -4.86772 -16.2569 43.7584
head 2.98391 -10.8562 23.9651
rclavicle -2.43138e-014 -1.00386e-014
rhumerus -36.2267 39.616 -101.089
rradius 52.3671
rwrist 8.44635
rhand 0.726195 -0.603545
rfingers 7.12502
rthumb 26.2858 -28.8025
lclavicle -2.43138e-014 -1.00386e-014
lhumerus -43.168 -33.9081 103.726
lradius 49.642
lwrist 37.759
lhand -9.12973 -10.1478
lfingers 7.12502
lthumb 16.8216 19.1435
rfemur -20.6517 0.252842 15.6831
rtibia 33.7647
rfoot -17.9745 -0.939238
rtoes -26.9287
lfemur -21.2768 1.24372 -22.6102
ltibia 29.4383
lfoot -18.6158 -2.56497
ltoes -12.9088
52
root -5.6487 15.8673 36.0904 160.573 -85.3874 -150.241
lowerback -5.49762 1.28378 -0.0413995
upperback -5.81313 1.54269 0.514094
thorax -2.92649 0.707859 0.599757
lowerneck 16.209 -6.67802 -30.6123
upperneck -4.66772 -16.2431 43.8229
head 3.0576 -10.8505 24.0055
rclavicle 2.16551e-014 -8.34896e-015
rhumerus -36.0737 40.6124 -100.963
rradius 53.3263
rwrist 8.10814
rhand 0.8283 -0.617214
rfingers 7.12502
rthumb 26.3835 -28.8016
lclavicle 2.16551e-014 -8.34896e-015
lhumerus -42.889 -34.3535 103.649
lradius 50.3002
lwrist 38.3679
lhand -8.98501 -10.0217
lfingers 7.12502
lthumb 16.9609 19.2578
rfemur -21.3436 0.0160767 15.572
rtibia 34.7062
rfoot -18.1013 -0.56888
rtoes -26.7384
lfemur -21.6262 1.39913 -22.7546
ltibia 29.8893
lfoot -18.7145 -2.45378
ltoes -12.8176
53
root -5.62364 15.8508 36.1094 162.102 -85.2355 -151.726
lowerback -5.26126 1.28909 -0.142116
upperback -5.80783 1.55634 0.520556
thorax -3.05597 0.719705 0.657952
lowerneck 16.0897 -6.64406 -30.5489
upperneck -4.45085 -16.2344 43.889
head 3.13832 -10.8483 24.0489
rclavicle 1.06847e-014 5.26779e-015
rhumerus -35.9109 41.5309 -100.81
rradius 54.2932
rwrist 7.78
rhand 0.942592 -0.652959
rfingers 7.12502
rthumb 26.4929 -28.8209
lclavicle 1.06847e-014 5.26779e-015
lhumerus -42.5934 -34.732 103.521
lradius 50.9436
lwrist 39.0209
lhand -8.84786 -9.89442
lfingers 7.12502
lthumb 17.0929 19.3737
rfemur -22.0489 -0.324228 15.4894
rtibia 35.6297
rfoot -18.2251 -0.224131
rtoes -26.5699
lfemur -22.0285 1.53122 -22.8963
ltibia 30.3678
lfoot -18.8175 -2.35017
ltoes -12.7775
54
root -5.59734 15.8336 36.1309 163.275 -85.1182 -152.84
lowerback -5.00864 1.28574 -0.198868
upperback -5.81338 1.55637 0.517638
thorax -3.20433 0.72291 0.681063
lowerneck 15.9736 -6.61102 -30.4751
upperneck -4.22544 -16.2296 43.9537
head 3.22108 -10.8483 24.0886
rclavicle 2.51214e-014 1.42131e-014
rhumerus -35.7373 42.3775 -100.618
rradius 55.2811
rwrist 7.44432
rhand 1.1006 -0.711285
rfingers 7.12502
rthumb 26.6441 -28.8563
lclavicle 2.51214e-014 1.42131e-014
lhumerus -42.264 -35.0384 103.331
lradius 51.5631
lwrist 39.6417
lhand -8.65051 -9.72945
lfingers 7.12502
lthumb 17.2828 19.5221
rfemur -22.756 -0.738935 15.4187
rtibia 36.5415
rfoot -18.3459 0.140005
rtoes -26.0945
lfemur -22.4697 1.63419 -23.0381
ltibia 30.8707
lfoot -18.9232 -2.26508
ltoes -12.654
55
root -5.5698 15.8156 36.1543 164.231 -85.0384 -153.724
lowerback -4.74222 1.27922 -0.225861
upperback -5.82455 1.55085 0.501245
thorax -3.36512 0.72198 0.67321
lowerneck 15.8606 -6.58497 -30.3801
upperneck -4.0029 -16.2323 44.0191
head 3.30367 -10.8524 24.1203
rclavicle -3.05942e-014 -3.37934e-015
rhumerus -35.5206 43.0965 -100.363
rradius 56.2672
rwrist 7.13472
rhand 1.3064 -0.763829
rfingers 7.12502
rthumb 26.8411 -28.8787
lclavicle -3.05942e-014 -3.37934e-015
lhumerus -41.9044 -35.3071 103.095
lradius 52.1639
lwrist 40.2762
lhand -8.42338 -9.54139
lfingers 7.12502
lthumb 17.5014 19.6908
rfemur -23.4658 -1.21788 15.3595
rtibia 37.446
rfoot -18.4614 0.472844
rtoes -25.4079
lfemur -22.9453 1.71398 -23.1867
ltibia 31.3948
lfoot -19.0324 -2.20956
ltoes -12.4194
56
root -5.54087 15.7964 36.1795 165.025 -84.9977 -154.44
lowerback -4.45706 1.26521 -0.220819
upperback -5.8378 1.53436 0.469954
thorax -3.53731 0.714076 0.631584
lowerneck 15.7419 -6.5624 -30.2643
upperneck -3.78103 -16.235 44.0848
head 3.38496 -10.8558 24.1449
rclavicle -1.78968e-014 6.26172e-015
rhumerus -35.2697 43.7122 -100.058
rradius 57.2665
rwrist 6.8382
rhand 1.57684 -0.817859
rfingers 7.12502
rthumb 27.0998 -28.8927
lclavicle -1.78968e-014 6.26172e-015
lhumerus -41.5154 -35.5347 102.81
lradius 52.7478
lwrist 40.9407
lhand -8.20464 -9.3493
lfingers 7.12502
lthumb 17.7119 19.864
rfemur -24.1768 -1.77316 15.3153
rtibia 38.3505
rfoot -18.5724 0.750884
rtoes -24.5844
lfemur -23.4497 1.77087 -23.3454
ltibia 31.9394
lfoot -19.1458 -2.17963
ltoes -12.0922
